<svg width="143" height="40" viewBox="0 0 143 40" fill="none" xmlns="http://www.w3.org/2000/svg">
<path d="M18.9523 11.0726C18.6187 8.21417 18.2694 5.22048 18.1704 1.85698C18.1403 0.831775 18.9744 0 20 0C21.0256 0 21.8597 0.831711 21.8291 1.8569C21.7299 5.18384 21.3827 8.16902 21.0502 11.0254C20.9334 12.0288 20.8185 13.0162 20.7169 13.9971C20.529 15.8101 22.5883 16.6628 23.7366 15.2474C24.3481 14.4937 24.955 13.7264 25.572 12.9463C27.3572 10.6893 29.2271 8.32549 31.5354 5.87726C32.239 5.13098 33.4169 5.13259 34.1422 5.85785C34.8675 6.5831 34.8691 7.76101 34.1225 8.46429C31.6998 10.7466 29.3432 12.6118 27.0884 14.3966L27.0859 14.3985C26.2949 15.0247 25.5164 15.6409 24.752 16.2619C23.3371 17.411 24.1903 19.4703 26.0033 19.2815C26.9682 19.181 27.9396 19.0676 28.9272 18.9524C31.7857 18.6188 34.7795 18.2694 38.143 18.1704C39.1682 18.1403 40 18.9744 40 20C40 21.0256 39.1683 21.8597 38.1431 21.8291C34.8163 21.7298 31.8311 21.3825 28.9749 21.0502L28.9724 21.05C27.97 20.9334 26.9834 20.8186 26.0036 20.717C24.1905 20.5291 23.3377 22.5885 24.7532 23.7369C25.5055 24.3472 26.2713 24.9529 27.0499 25.5687L27.0533 25.5716C29.3104 27.357 31.6744 29.2268 34.1228 31.5353C34.8691 32.239 34.8675 33.4169 34.1422 34.1422C33.4169 34.8675 32.239 34.8691 31.5357 34.1226C29.2534 31.6999 27.3883 29.3435 25.6038 27.0889L25.5988 27.082L25.5946 27.0765C24.9707 26.2886 24.3566 25.5132 23.738 24.7516C22.5887 23.3369 20.529 24.19 20.7169 26.0031C20.8185 26.9838 20.9334 27.9713 21.0502 28.9746C21.3827 31.831 21.7299 34.8162 21.8291 38.1431C21.8597 39.1683 21.0256 40 20 40C18.9744 40 18.1403 39.1682 18.1704 38.143C18.2694 34.7795 18.6187 31.7859 18.9523 28.9274L18.9531 28.9219C19.0681 27.9363 19.1811 26.9667 19.2814 26.0036C19.4702 24.1906 17.4109 23.3374 16.2616 24.7522C15.6431 25.5135 15.0292 26.2888 14.4054 27.0765L14.4012 27.082L14.3962 27.0889C12.6117 29.3435 10.7466 31.6999 8.46433 34.1226C7.76102 34.8691 6.5831 34.8675 5.85783 34.1422C5.13257 33.4169 5.13093 32.239 5.8772 31.5353C8.3256 29.2268 10.6896 27.357 12.9467 25.5716L12.9501 25.5687C13.7286 24.953 14.4944 24.3473 15.2466 23.7371C16.6622 22.5887 15.8093 20.5292 13.9962 20.7171C13.0156 20.8187 12.0283 20.9335 11.0251 21.0502C8.16887 21.3825 5.18373 21.7298 1.8569 21.8291C0.831712 21.8597 0 21.0256 0 20C0 18.9744 0.831774 18.1403 1.85698 18.1704C5.22053 18.2694 8.21437 18.6188 11.0728 18.9524C12.0603 19.0676 13.0317 19.181 13.9966 19.2815C15.8096 19.4703 16.6628 17.411 15.2479 16.2618C14.4827 15.6403 13.7034 15.0234 12.9116 14.3966C10.6568 12.6118 8.3002 10.7466 5.87746 8.46429C5.1309 7.76101 5.13257 6.58311 5.85782 5.85786C6.58309 5.1326 7.76106 5.13099 8.46467 5.87728C10.7729 8.3255 12.6428 10.6893 14.428 12.9463C15.0449 13.7262 15.6517 14.4934 16.263 15.2468C17.4114 16.6623 19.4702 15.8095 19.2814 13.9965C19.1812 13.0334 19.0681 12.0638 18.9531 11.0781L18.9523 11.0726Z" fill="#101010"/>
<path d="M58.728 20.432C59.624 20.592 60.384 21.064 61.008 21.848C61.632 22.632 61.944 23.52 61.944 24.512C61.944 25.36 61.72 26.128 61.272 26.816C60.84 27.488 60.208 28.024 59.376 28.424C58.544 28.808 57.576 29 56.472 29H49.8V12.32H56.16C57.296 12.32 58.272 12.512 59.088 12.896C59.904 13.28 60.52 13.8 60.936 14.456C61.352 15.096 61.56 15.816 61.56 16.616C61.56 17.576 61.304 18.376 60.792 19.016C60.28 19.656 59.592 20.128 58.728 20.432ZM52.536 19.328H55.92C56.816 19.328 57.512 19.128 58.008 18.728C58.52 18.312 58.776 17.72 58.776 16.952C58.776 16.2 58.52 15.616 58.008 15.2C57.512 14.768 56.816 14.552 55.92 14.552H52.536V19.328ZM56.232 26.768C57.16 26.768 57.888 26.544 58.416 26.096C58.944 25.648 59.208 25.024 59.208 24.224C59.208 23.408 58.928 22.76 58.368 22.28C57.808 21.8 57.064 21.56 56.136 21.56H52.536V26.768H56.232ZM64.0052 22.328C64.0052 21 64.2772 19.824 64.8212 18.8C65.3812 17.776 66.1332 16.984 67.0772 16.424C68.0372 15.848 69.0932 15.56 70.2452 15.56C71.2852 15.56 72.1892 15.768 72.9572 16.184C73.7412 16.584 74.3652 17.088 74.8292 17.696V15.776H77.5892V29H74.8292V27.032C74.3652 27.656 73.7332 28.176 72.9332 28.592C72.1332 29.008 71.2212 29.216 70.1972 29.216C69.0612 29.216 68.0212 28.928 67.0772 28.352C66.1332 27.76 65.3812 26.944 64.8212 25.904C64.2772 24.848 64.0052 23.656 64.0052 22.328ZM74.8292 22.376C74.8292 21.464 74.6372 20.672 74.2532 20C73.8852 19.328 73.3972 18.816 72.7892 18.464C72.1812 18.112 71.5252 17.936 70.8212 17.936C70.1172 17.936 69.4612 18.112 68.8532 18.464C68.2452 18.8 67.7492 19.304 67.3652 19.976C66.9972 20.632 66.8132 21.416 66.8132 22.328C66.8132 23.24 66.9972 24.04 67.3652 24.728C67.7492 25.416 68.2452 25.944 68.8532 26.312C69.4772 26.664 70.1332 26.84 70.8212 26.84C71.5252 26.84 72.1812 26.664 72.7892 26.312C73.3972 25.96 73.8852 25.448 74.2532 24.776C74.6372 24.088 74.8292 23.288 74.8292 22.376ZM83.9188 17.696C84.3188 17.024 84.8468 16.504 85.5028 16.136C86.1748 15.752 86.9668 15.56 87.8788 15.56V18.392H87.1828C86.1108 18.392 85.2948 18.664 84.7348 19.208C84.1908 19.752 83.9188 20.696 83.9188 22.04V29H81.1828V15.776H83.9188V17.696ZM89.4818 22.328C89.4818 21 89.7538 19.824 90.2978 18.8C90.8578 17.776 91.6098 16.984 92.5538 16.424C93.5138 15.848 94.5698 15.56 95.7218 15.56C96.7618 15.56 97.6658 15.768 98.4338 16.184C99.2178 16.584 99.8418 17.088 100.306 17.696V15.776H103.066V29H100.306V27.032C99.8418 27.656 99.2098 28.176 98.4098 28.592C97.6098 29.008 96.6978 29.216 95.6738 29.216C94.5378 29.216 93.4978 28.928 92.5538 28.352C91.6098 27.76 90.8578 26.944 90.2978 25.904C89.7538 24.848 89.4818 23.656 89.4818 22.328ZM100.306 22.376C100.306 21.464 100.114 20.672 99.7298 20C99.3618 19.328 98.8738 18.816 98.2658 18.464C97.6578 18.112 97.0018 17.936 96.2978 17.936C95.5938 17.936 94.9378 18.112 94.3298 18.464C93.7218 18.8 93.2258 19.304 92.8418 19.976C92.4738 20.632 92.2898 21.416 92.2898 22.328C92.2898 23.24 92.4738 24.04 92.8418 24.728C93.2258 25.416 93.7218 25.944 94.3298 26.312C94.9538 26.664 95.6098 26.84 96.2978 26.84C97.0018 26.84 97.6578 26.664 98.2658 26.312C98.8738 25.96 99.3618 25.448 99.7298 24.776C100.114 24.088 100.306 23.288 100.306 22.376ZM111.891 22.4L117.987 29H114.291L109.395 23.312V29H106.659V11.24H109.395V21.56L114.195 15.776H117.987L111.891 22.4ZM119.036 22.328C119.036 21 119.308 19.824 119.852 18.8C120.412 17.776 121.164 16.984 122.108 16.424C123.068 15.848 124.124 15.56 125.276 15.56C126.316 15.56 127.22 15.768 127.988 16.184C128.772 16.584 129.396 17.088 129.86 17.696V15.776H132.62V29H129.86V27.032C129.396 27.656 128.764 28.176 127.964 28.592C127.164 29.008 126.252 29.216 125.228 29.216C124.092 29.216 123.052 28.928 122.108 28.352C121.164 27.76 120.412 26.944 119.852 25.904C119.308 24.848 119.036 23.656 119.036 22.328ZM129.86 22.376C129.86 21.464 129.668 20.672 129.284 20C128.916 19.328 128.428 18.816 127.82 18.464C127.212 18.112 126.556 17.936 125.852 17.936C125.148 17.936 124.492 18.112 123.884 18.464C123.276 18.8 122.78 19.304 122.396 19.976C122.028 20.632 121.844 21.416 121.844 22.328C121.844 23.24 122.028 24.04 122.396 24.728C122.78 25.416 123.276 25.944 123.884 26.312C124.508 26.664 125.164 26.84 125.852 26.84C126.556 26.84 127.212 26.664 127.82 26.312C128.428 25.96 128.916 25.448 129.284 24.776C129.668 24.088 129.86 23.288 129.86 22.376ZM139.406 18.008V25.328C139.406 25.824 139.518 26.184 139.742 26.408C139.982 26.616 140.382 26.72 140.942 26.72H142.622V29H140.462C139.23 29 138.286 28.712 137.63 28.136C136.974 27.56 136.646 26.624 136.646 25.328V18.008H135.086V15.776H136.646V12.488H139.406V15.776H142.622V18.008H139.406Z" fill="#101010"/>
</svg>
