<svg width="200" height="56" viewBox="0 0 200 56" fill="none" xmlns="http://www.w3.org/2000/svg">
<path d="M26.577 15.5016C26.1092 11.4998 25.6193 7.30868 25.4806 2.59977C25.4383 1.16448 26.6079 0 28.0462 0C29.4844 0 30.654 1.1644 30.6112 2.59966C30.472 7.25738 29.9851 11.4366 29.5189 15.4356C29.3551 16.8403 29.194 18.2227 29.0514 19.5959C28.788 22.1341 31.6757 23.3279 33.2861 21.3463C34.1435 20.2912 34.9946 19.217 35.8598 18.1248C38.3632 14.965 40.9854 11.6557 44.2223 8.22816C45.209 7.18337 46.8608 7.18562 47.8779 8.20099C48.8949 9.21634 48.8972 10.8654 47.8503 11.85C44.4528 15.0452 41.1482 17.6565 37.9863 20.1552L37.9828 20.1579C36.8736 21.0345 35.7819 21.8973 34.7099 22.7666C32.7258 24.3755 33.9223 27.2584 36.4646 26.9941C37.8177 26.8534 39.18 26.6947 40.5648 26.5334C44.5733 26.0663 48.7715 25.5772 53.4882 25.4386C54.9259 25.3964 56.0923 26.5641 56.0923 28C56.0923 29.4359 54.926 30.6036 53.4883 30.5608C48.8231 30.4218 44.637 29.9356 40.6317 29.4703L40.6282 29.47C39.2225 29.3067 37.8391 29.146 36.465 29.0038C33.9225 28.7408 32.7266 31.624 34.7117 33.2317C35.7665 34.0861 36.8405 34.9341 37.9323 35.7962L37.937 35.8002C41.1022 38.2998 44.4172 40.9176 47.8507 44.1495C48.8972 45.1346 48.8949 46.7837 47.8779 47.7991C46.8608 48.8144 45.209 48.8168 44.2228 47.7716C41.0223 44.3799 38.4068 41.0809 35.9044 37.9245L35.8974 37.9148L35.8915 37.9071C35.0166 36.8041 34.1555 35.7184 33.288 34.6523C31.6763 32.6717 28.788 33.8661 29.0515 36.4043C29.194 37.7774 29.3551 39.1598 29.5189 40.5644C29.9851 44.5634 30.472 48.7426 30.6112 53.4003C30.654 54.8356 29.4844 56 28.0462 56C26.6079 56 25.4383 54.8355 25.4806 53.4002C25.6193 48.6914 26.1092 44.5002 26.577 40.4984L26.5781 40.4907C26.7393 39.1108 26.8979 37.7534 27.0385 36.4051C27.3032 33.8669 24.4154 32.6723 22.8037 34.653C21.9364 35.7189 21.0755 36.8043 20.2008 37.9071L20.1949 37.9148L20.1879 37.9245C17.6855 41.0809 15.07 44.3799 11.8696 47.7716C10.8833 48.8168 9.23153 48.8144 8.21448 47.7991C7.19744 46.7837 7.19514 45.1346 8.24164 44.1495C11.675 40.9176 14.9901 38.2998 18.1553 35.8002L18.16 35.7962C19.2517 34.9342 20.3256 34.0862 21.3804 33.2319C23.3655 31.6241 22.1695 28.7409 19.627 29.0039C18.2518 29.1461 16.8674 29.3069 15.4606 29.4703C11.4553 29.9356 7.26918 30.4218 2.60395 30.5608C1.16632 30.6036 0 29.4359 0 28C0 26.5641 1.1664 25.3964 2.60406 25.4386C7.32079 25.5772 11.5191 26.0663 15.5275 26.5334C16.9123 26.6947 18.2744 26.8534 19.6275 26.9941C22.1699 27.2584 23.3663 24.3754 21.3822 22.7665C20.3091 21.8964 19.2164 21.0328 18.106 20.1552C14.9441 17.6565 11.6394 15.0452 8.24201 11.85C7.1951 10.8654 7.19744 9.21636 8.21446 8.20101C9.23151 7.18563 10.8834 7.18338 11.8701 8.22819C15.1069 11.6557 17.7291 14.965 20.2325 18.1248C21.0976 19.2167 21.9485 20.2907 22.8057 21.3455C24.4161 23.3272 27.3033 22.1332 27.0385 19.5951C26.8979 18.2467 26.7393 16.8893 26.5781 15.5093L26.577 15.5016Z" fill="#F4F4F4"/>
<path d="M82.3547 28.6048C83.6112 28.8288 84.6769 29.4896 85.552 30.5872C86.427 31.6848 86.8645 32.928 86.8645 34.3168C86.8645 35.504 86.5504 36.5792 85.9222 37.5424C85.3164 38.4832 84.4301 39.2336 83.2634 39.7936C82.0967 40.3312 80.7393 40.6 79.1911 40.6H69.8349V17.248H78.7536C80.3466 17.248 81.7153 17.5168 82.8596 18.0544C84.0038 18.592 84.8677 19.32 85.451 20.2384C86.0344 21.1344 86.326 22.1424 86.326 23.2624C86.326 24.6064 85.9671 25.7264 85.2491 26.6224C84.5311 27.5184 83.5663 28.1792 82.3547 28.6048ZM73.6716 27.0592H78.417C79.6735 27.0592 80.6495 26.7792 81.3451 26.2192C82.063 25.6368 82.422 24.808 82.422 23.7328C82.422 22.68 82.063 21.8624 81.3451 21.28C80.6495 20.6752 79.6735 20.3728 78.417 20.3728H73.6716V27.0592ZM78.8546 37.4752C80.1559 37.4752 81.1768 37.1616 81.9172 36.5344C82.6576 35.9072 83.0278 35.0336 83.0278 33.9136C83.0278 32.7712 82.6352 31.864 81.8499 31.192C81.0646 30.52 80.0213 30.184 78.7199 30.184H73.6716V37.4752H78.8546Z" fill="#F4F4F4"/>
<path d="M89.755 31.2592C89.755 29.4 90.1364 27.7536 90.8992 26.32C91.6845 24.8864 92.7391 23.7776 94.0628 22.9936C95.4091 22.1872 96.8899 21.784 98.5053 21.784C99.9638 21.784 101.231 22.0752 102.308 22.6576C103.408 23.2176 104.283 23.9232 104.934 24.7744V22.0864H108.804V40.6H104.934V37.8448C104.283 38.7184 103.397 39.4464 102.275 40.0288C101.153 40.6112 99.874 40.9024 98.438 40.9024C96.845 40.9024 95.3866 40.4992 94.0628 39.6928C92.7391 38.864 91.6845 37.7216 90.8992 36.2656C90.1364 34.7872 89.755 33.1184 89.755 31.2592ZM104.934 31.3264C104.934 30.0496 104.664 28.9408 104.126 28C103.61 27.0592 102.925 26.3424 102.073 25.8496C101.22 25.3568 100.3 25.1104 99.3131 25.1104C98.3259 25.1104 97.4059 25.3568 96.5533 25.8496C95.7007 26.32 95.0052 27.0256 94.4667 27.9664C93.9507 28.8848 93.6926 29.9824 93.6926 31.2592C93.6926 32.536 93.9507 33.656 94.4667 34.6192C95.0052 35.5824 95.7007 36.3216 96.5533 36.8368C97.4284 37.3296 98.3483 37.576 99.3131 37.576C100.3 37.576 101.22 37.3296 102.073 36.8368C102.925 36.344 103.61 35.6272 104.126 34.6864C104.664 33.7232 104.934 32.6032 104.934 31.3264Z" fill="#F4F4F4"/>
<path d="M117.68 24.7744C118.241 23.8336 118.981 23.1056 119.901 22.5904C120.844 22.0528 121.954 21.784 123.233 21.784V25.7488H122.257C120.754 25.7488 119.61 26.1296 118.824 26.8912C118.061 27.6528 117.68 28.9744 117.68 30.856V40.6H113.843V22.0864H117.68V24.7744Z" fill="#F4F4F4"/>
<path d="M125.481 31.2592C125.481 29.4 125.862 27.7536 126.625 26.32C127.411 24.8864 128.465 23.7776 129.789 22.9936C131.135 22.1872 132.616 21.784 134.231 21.784C135.69 21.784 136.957 22.0752 138.034 22.6576C139.134 23.2176 140.009 23.9232 140.66 24.7744V22.0864H144.53V40.6H140.66V37.8448C140.009 38.7184 139.123 39.4464 138.001 40.0288C136.879 40.6112 135.6 40.9024 134.164 40.9024C132.571 40.9024 131.113 40.4992 129.789 39.6928C128.465 38.864 127.411 37.7216 126.625 36.2656C125.862 34.7872 125.481 33.1184 125.481 31.2592ZM140.66 31.3264C140.66 30.0496 140.39 28.9408 139.852 28C139.336 27.0592 138.651 26.3424 137.799 25.8496C136.946 25.3568 136.026 25.1104 135.039 25.1104C134.052 25.1104 133.132 25.3568 132.279 25.8496C131.427 26.32 130.731 27.0256 130.193 27.9664C129.677 28.8848 129.419 29.9824 129.419 31.2592C129.419 32.536 129.677 33.656 130.193 34.6192C130.731 35.5824 131.427 36.3216 132.279 36.8368C133.154 37.3296 134.074 37.576 135.039 37.576C136.026 37.576 136.946 37.3296 137.799 36.8368C138.651 36.344 139.336 35.6272 139.852 34.6864C140.39 33.7232 140.66 32.6032 140.66 31.3264Z" fill="#F4F4F4"/>
<path d="M156.906 31.36L165.455 40.6H160.272L153.406 32.6368V40.6H149.569V15.736H153.406V30.184L160.137 22.0864H165.455L156.906 31.36Z" fill="#F4F4F4"/>
<path d="M166.926 31.2592C166.926 29.4 167.307 27.7536 168.07 26.32C168.855 24.8864 169.91 23.7776 171.234 22.9936C172.58 22.1872 174.061 21.784 175.676 21.784C177.134 21.784 178.402 22.0752 179.479 22.6576C180.579 23.2176 181.454 23.9232 182.104 24.7744V22.0864H185.975V40.6H182.104V37.8448C181.454 38.7184 180.567 39.4464 179.445 40.0288C178.324 40.6112 177.045 40.9024 175.609 40.9024C174.016 40.9024 172.557 40.4992 171.234 39.6928C169.91 38.864 168.855 37.7216 168.07 36.2656C167.307 34.7872 166.926 33.1184 166.926 31.2592ZM182.104 31.3264C182.104 30.0496 181.835 28.9408 181.297 28C180.78 27.0592 180.096 26.3424 179.244 25.8496C178.391 25.3568 177.471 25.1104 176.484 25.1104C175.497 25.1104 174.577 25.3568 173.724 25.8496C172.871 26.32 172.176 27.0256 171.637 27.9664C171.121 28.8848 170.863 29.9824 170.863 31.2592C170.863 32.536 171.121 33.656 171.637 34.6192C172.176 35.5824 172.871 36.3216 173.724 36.8368C174.599 37.3296 175.519 37.576 176.484 37.576C177.471 37.576 178.391 37.3296 179.244 36.8368C180.096 36.344 180.78 35.6272 181.297 34.6864C181.835 33.7232 182.104 32.6032 182.104 31.3264Z" fill="#F4F4F4"/>
<path d="M195.49 25.2112V35.4592C195.49 36.1536 195.647 36.6576 195.961 36.9712C196.298 37.2624 196.859 37.408 197.644 37.408H200V40.6H196.971C195.243 40.6 193.92 40.1968 193 39.3904C192.08 38.584 191.62 37.2736 191.62 35.4592V25.2112H189.432V22.0864H191.62V17.4832H195.49V22.0864H200V25.2112H195.49Z" fill="#F4F4F4"/>
</svg>
